<?xml version="1.0" encoding="UTF-8"?>
<svg version="1.1" xmlns="http://www.w3.org/2000/svg" width="534" height="534">
<path d="M0 0 C1.33417969 0.1853833 1.33417969 0.1853833 2.6953125 0.37451172 C52.75914504 7.56508655 100.52861603 28.65442081 137 64 C137.5578418 64.53206055 138.11568359 65.06412109 138.69042969 65.61230469 C147.28697434 73.82952029 155.01608698 82.37070591 162 92 C162.6175415 92.84304687 162.6175415 92.84304687 163.24755859 93.703125 C199.68121821 144.03207737 210.96851717 211.47068058 201.51123047 272.13525391 C195.86243918 306.1542034 184.56896765 339.93691235 164 368 C163.23171875 369.051875 162.4634375 370.10375 161.671875 371.1875 C155.9313931 378.90580459 149.64906183 386.05360488 143 393 C142.47954102 393.55300781 141.95908203 394.10601562 141.42285156 394.67578125 C116.15601915 421.43778186 81.78091791 442.26461464 46.49926758 452.74267578 C41.54194498 454.21547032 38.75121126 455.57381594 35.4375 459.75 C25.14144615 471.95666178 12.47956789 479.93768246 -3 484 C-3.80953125 484.22429687 -4.6190625 484.44859375 -5.453125 484.6796875 C-26.96814106 489.61866917 -50.22621373 485.51795218 -68.984375 474.19921875 C-74.93430897 470.13343054 -74.93430897 470.13343054 -77.34814453 467.56616211 C-82.88250342 462.01717117 -89.26341645 461.15911579 -96.75 459.6875 C-99.45987749 459.1106971 -102.16409999 458.51010845 -104.8671875 457.90234375 C-105.55027985 457.74927765 -106.23337219 457.59621155 -106.93716431 457.43850708 C-162.91602031 444.6472534 -215.52832598 409.956577 -246.40332031 361.21923828 C-263.80705283 333.03918214 -274.06739478 302.69700688 -279 270 C-279.11859375 269.23703613 -279.2371875 268.47407227 -279.359375 267.68798828 C-288.45065274 206.30833487 -274.78378108 140.18589179 -238 90 C-235.16373338 86.18429561 -232.16708894 82.54691618 -229 79 C-228.34088623 78.26064209 -228.34088623 78.26064209 -227.66845703 77.50634766 C-224.49317059 73.95840075 -221.26291899 70.46747507 -218 67 C-217.38382813 66.34128906 -216.76765625 65.68257813 -216.1328125 65.00390625 C-162.58549367 9.53503291 -74.44245821 -10.67028137 0 0 Z " fill="#F9CB2C" transform="translate(304,31)"/>
<path d="M0 0 C8.47735749 0.56515717 14.32393951 2.69285499 20.06640625 9.10546875 C28.97354854 20.45122541 29.65377275 35.90561018 28.08154297 49.74658203 C27.15566906 56.73768005 25.93106623 63.6807988 24.6875 70.62109375 C23.08253814 79.91771495 22.60953203 88.94687311 22.6875 98.375 C22.69201172 99.426875 22.69652344 100.47875 22.70117188 101.5625 C22.71281989 104.12506221 22.72917447 106.68749877 22.75 109.25 C21.78320312 109.69730469 20.81640625 110.14460938 19.8203125 110.60546875 C13.90601871 113.3479656 7.99114553 116.09330823 2.125 118.9375 C1.02285156 119.46923828 1.02285156 119.46923828 -0.1015625 120.01171875 C-2.70647314 121.51309452 -4.91964217 123.35613334 -7.25 125.25 C-6.45118408 125.00354736 -5.65236816 124.75709473 -4.8293457 124.50317383 C58.195822 105.13133224 58.195822 105.13133224 75.75 114.25 C80.22687036 116.99863293 83.04849032 120.23999927 84.75 125.25 C85.56264604 131.96561658 84.4756831 137.11721302 81.75 143.25 C80.574375 143.085 79.39875 142.92 78.1875 142.75 C64.00891035 141.27489828 51.50061501 142.95134839 37.75 146.25 C36.8317041 146.46962402 35.9134082 146.68924805 34.96728516 146.91552734 C22.65704779 149.92441255 11.16024049 153.7246973 -0.25 159.25 C6.41046717 157.9503735 13.04312269 156.54222651 19.67236328 155.09228516 C66.6566836 144.8515373 66.6566836 144.8515373 78.5625 152.375 C83.22830427 156.06424058 85.29454405 160.66908298 86.3125 166.4375 C85.31546374 173.19519022 83.09075499 180.21241648 78.88671875 185.66796875 C76.75 187.25 76.75 187.25 74.41015625 187.3515625 C73.55292969 187.19429687 72.69570313 187.03703125 71.8125 186.875 C51.76611171 184.42839356 31.21544205 195.54044269 13.75 204.25 C15.34121324 203.87791437 16.93234787 203.50549077 18.52319336 203.13183594 C19.99869967 202.78630282 21.47480222 202.44330834 22.95141602 202.10253906 C27.5930281 201.02337711 32.20721408 199.87389711 36.8125 198.6484375 C66.8441884 190.78597463 66.8441884 190.78597463 79.5625 196.25 C84.13007884 199.1136116 87.18151494 202.01391306 88.75 207.25 C90.39291506 219.15795024 88.13990605 227.76812128 81.0390625 237.625 C77.43425522 242.06168588 73.84066838 244.70466581 68.75 247.25 C67.76 247.91 66.77 248.57 65.75 249.25 C60.1441274 250.07219465 55.5246219 249.43308126 50.75 246.25 C48.14208524 243.72901573 47.77422998 242.66998632 47.5625 239 C47.6553125 237.63875 47.6553125 237.63875 47.75 236.25 C51.215 234.27 51.215 234.27 54.75 232.25 C54.255 229.775 54.255 229.775 53.75 227.25 C50.87635209 226.83253392 50.87635209 226.83253392 47.75 227.25 C44.61415465 230.28131717 44.48860632 233.51775673 44.3125 237.6875 C44.47327762 242.6783052 45.2649709 245.49689173 48.75 249.25 C52.64919436 252.87279577 56.18967573 254.93597337 61.65234375 255.3359375 C64.6936433 255.2113405 67.4982673 254.48570406 70.44140625 253.74609375 C74.2302503 252.93190899 77.91101346 252.63132035 81.75 253.25 C83.875 254.75 83.875 254.75 84.75 257.25 C84.37284558 265.17024279 82.0894222 270.09613337 77.1875 276.375 C73.89850788 280.50629747 73.89850788 280.50629747 71.75 285.25 C69.66347577 286.69955392 67.64882438 287.95869568 65.4375 289.1875 C64.80739014 289.54086426 64.17728027 289.89422852 63.52807617 290.25830078 C57.81525084 293.37073133 52.04966089 295.59677407 45.75 297.25 C44.94046875 297.47429687 44.1309375 297.69859375 43.296875 297.9296875 C21.78185894 302.86866917 -1.47621373 298.76795218 -20.234375 287.44921875 C-22.65259119 285.79677102 -24.96222039 284.07769109 -27.25 282.25 C-28.26707031 281.45916016 -28.26707031 281.45916016 -29.3046875 280.65234375 C-32.82674633 277.79523793 -35.02464882 275.23708754 -37.25 271.25 C-38.32784478 269.95374983 -39.41202432 268.66275883 -40.5 267.375 C-56.20427367 247.3877426 -59.37329788 220.06249532 -56.5 195.5625 C-53.28476183 174.81760717 -45.24045133 153.72867828 -31.70410156 137.38330078 C-29.99494587 134.87581213 -29.44097569 132.81848058 -28.78515625 129.859375 C-28.54434326 128.77648193 -28.30353027 127.69358887 -28.05541992 126.57788086 C-26.71991373 120.14612165 -25.43609922 113.71079774 -24.25 107.25 C-24.03633789 106.0954834 -23.82267578 104.9409668 -23.60253906 103.75146484 C-19.69601479 81.44450562 -19.7159387 58.97525015 -19.66479492 36.39624023 C-19.65716125 35.1365744 -19.64952759 33.87690857 -19.6416626 32.57907104 C-19.62833622 30.20201282 -19.62712034 27.82484336 -19.64031982 25.44778442 C-19.59259017 18.1672444 -19.13462103 11.10547411 -14.63671875 5.09375 C-9.71296721 1.20002464 -6.24578078 0.48044468 0 0 Z " fill="#FEDC40" transform="translate(255.25,217.75)"/>
<path d="M0 0 C4.46602618 4.03227544 7.29808763 8.40737007 10.25 13.625 C10.72743652 14.46546875 11.20487305 15.3059375 11.69677734 16.171875 C44.1557198 74.06869084 50.75085692 145.15541981 32.91430664 208.91723633 C26.11443837 231.91161787 16.22270717 254.59537626 2 274 C0.84757812 275.5778125 0.84757812 275.5778125 -0.328125 277.1875 C-6.0686069 284.90580459 -12.35093817 292.05360488 -19 299 C-19.52045898 299.55300781 -20.04091797 300.10601562 -20.57714844 300.67578125 C-45.83473816 327.42799224 -80.22064056 348.28534325 -115.49853516 358.74047852 C-120.49066162 360.22108968 -123.28299258 361.6124096 -126.625 365.8125 C-130.15281837 370.04712205 -133.71848364 373.53834847 -138 377 C-138 372.85823512 -136.21208046 371.49942403 -133.625 368.3125 C-129.04946162 362.45291027 -126.61840568 358.19753752 -127.3125 350.5625 C-127.74840363 348.08502222 -127.74840363 348.08502222 -129 347 C-134.28088 346.74028459 -138.93573622 347.11325675 -144.125 348.125 C-149.07211158 348.98291682 -152.34694311 349.23704658 -157 347 C-161.17071187 343.94657975 -165.13748139 340.954483 -167 336 C-167.64624107 331.02544667 -167.93446022 325.78089097 -165.375 321.3125 C-163 319 -163 319 -159.875 318.5 C-157 319 -157 319 -155 321 C-155 323.4375 -155 323.4375 -156 326 C-159.0625 327.8125 -159.0625 327.8125 -162 329 C-162.41890218 331.78938212 -162.41890218 331.78938212 -162 335 C-159.01454754 338.63095569 -156.79224472 340.54890116 -152.08984375 341.30859375 C-145.077149 341.7285918 -140.4795135 339.22865352 -135 335 C-130.32486671 330.70528441 -127.59608625 325.72319015 -125 320 C-124.46439453 319.13181641 -124.46439453 319.13181641 -123.91796875 318.24609375 C-121.50216655 312.33508837 -122.00353824 303.32798879 -123.8046875 297.3125 C-126.17628091 292.99456442 -129.45872467 290.30980053 -134.07421875 288.6328125 C-151.29347949 284.90848641 -168.32981999 290.78746963 -184.82421875 295.32421875 C-185.52135986 295.51467773 -186.21850098 295.70513672 -186.93676758 295.90136719 C-188.73019503 296.39744562 -190.517754 296.91460965 -192.3046875 297.43359375 C-195 298 -195 298 -198 297 C-178.33560925 286.68557161 -155.81822933 275.05069108 -133 279 C-127.09855257 268.10418957 -127.09855257 268.10418957 -126 256 C-127.43873382 251.64292543 -129.23855685 248.67290325 -132.6875 245.625 C-144.09164896 240.03051183 -155.99767937 241.87759839 -168.0625 244.125 C-169.87524414 244.45298584 -169.87524414 244.45298584 -171.72460938 244.78759766 C-181.30085137 246.56786047 -190.75776264 248.7407559 -200.17993164 251.20751953 C-201.1518042 251.45614746 -202.12367676 251.70477539 -203.125 251.9609375 C-203.97320312 252.18571777 -204.82140625 252.41049805 -205.6953125 252.64208984 C-208.13805019 253.02143873 -209.67410765 252.77507415 -212 252 C-188.93807288 239.50275458 -155.05294566 228.68689245 -129 236 C-128.855625 235.236875 -128.71125 234.47375 -128.5625 233.6875 C-128 231 -128 231 -127 228 C-126.39978923 222.37179409 -126.39124698 217.34690382 -129.60546875 212.53125 C-134.73218316 206.90191653 -141.73320114 204.50166571 -149.15625 203.62890625 C-168.18689553 203.25096119 -186.64689813 209.57506443 -204.70507812 214.96459961 C-205.35145233 215.15728928 -205.99782654 215.34997894 -206.66378784 215.54850769 C-208.42729428 216.07594676 -210.18952262 216.60765385 -211.95166016 217.13964844 C-214.62638675 217.89455285 -217.26740991 218.50223959 -220 219 C-211.61049573 210.19573373 -200.08614868 206.34700493 -189 202 C-189.00785522 201.03344482 -189.00785522 201.03344482 -189.01586914 200.04736328 C-189.03690359 197.07325247 -189.0497432 194.0991574 -189.0625 191.125 C-189.07087891 190.11179687 -189.07925781 189.09859375 -189.08789062 188.0546875 C-189.1416451 171.28329021 -189.1416451 171.28329021 -187 167 C-185.06420898 166.65283203 -185.06420898 166.65283203 -182.49609375 166.5078125 C-181.53904541 166.44456787 -180.58199707 166.38132324 -179.59594727 166.31616211 C-178.55365967 166.25307861 -177.51137207 166.18999512 -176.4375 166.125 C-165.57602982 165.35849124 -154.99604704 163.82284064 -144.28515625 161.90234375 C-131.03256915 159.57186157 -131.03256915 159.57186157 -127.4375 161.0625 C-125.35723263 163.86633863 -125.52135876 165.58113401 -126 169 C-130.36464596 178.26192669 -143.83086685 183.54850121 -153 187 C-161.89377877 190.05124687 -170.56074559 192.55051169 -180 193 C-179.67 194.98 -179.34 196.96 -179 199 C-178.27683594 198.69320312 -177.55367188 198.38640625 -176.80859375 198.0703125 C-164.40897446 193.34500557 -149.38203873 193.32819531 -137 198 C-127.40682278 202.87788672 -121.61741027 209.96400536 -118 220 C-116.97906875 223.32410079 -116.8977886 226.31927853 -116.9375 229.7890625 C-116.94523437 230.89507812 -116.95296875 232.00109375 -116.9609375 233.140625 C-116.97382813 234.29046875 -116.98671875 235.4403125 -117 236.625 C-117.02543216 238.90880759 -117.0464914 241.19266942 -117.0625 243.4765625 C-117.07410156 244.48799316 -117.08570313 245.49942383 -117.09765625 246.54150391 C-117.16859816 249.00560436 -117.16859816 249.00560436 -116 251 C-115.8466973 253.99235072 -115.76169017 256.94396114 -115.75 259.9375 C-115.74605225 260.79690186 -115.74210449 261.65630371 -115.73803711 262.54174805 C-115.79105271 268.34231082 -116.59778887 273.31220223 -118.37890625 278.8515625 C-119.51957827 282.79728331 -118.7609135 285.42360549 -117.01953125 289.03125 C-114.43802237 293.64287751 -112.19305863 296.30430738 -107 298 C-101.95786935 298.87689229 -98.95080183 297.25434228 -94.890625 294.47265625 C-88.84240772 289.76154486 -86.13935285 284.43292097 -85 277 C-84.67455428 271.00174429 -84.82350058 265.00098022 -85 259 C-78.48976508 266.59527407 -77.9347527 274.11965469 -78.67578125 283.77978516 C-79.83938661 291.74802851 -84.22353356 298.99779373 -90.3125 304.1875 C-97.37690108 308.94515787 -104.5960944 310.46688364 -113 310 C-113.2393832 311.91506561 -113.47770668 313.83026912 -113.7109375 315.74609375 C-113.96019726 317.68964624 -114.25689586 319.62700709 -114.5625 321.5625 C-115.38924815 327.98271613 -115.07572607 334.53804189 -115 341 C-80.83702556 327.10211132 -41.58274187 307.26807909 -20 275.875 C-19.34 274.92625 -18.68 273.9775 -18 273 C-17.34 273 -16.68 273 -16 273 C-15.73058594 272.25105469 -15.46117187 271.50210937 -15.18359375 270.73046875 C-14.04341901 268.10016464 -12.91238717 266.46994787 -11.0625 264.3125 C26.70550619 216.74988639 36.50531799 150.84402694 30.15795898 92.06738281 C26.44862102 61.81596227 17.42889862 30.38039461 1.33300781 4.29882812 C0 2 0 2 0 0 Z " fill="#E27B1E" transform="translate(466,125)"/>
<path d="M0 0 C11.84520138 6.3345281 17.15725233 18.69997574 21.1484375 30.890625 C25.9374556 47.15953818 28.21838992 71.56732442 20.21484375 87.0390625 C19.078125 88.796875 19.078125 88.796875 17.21484375 90.0390625 C11.47251533 91.20959049 6.5325444 90.90961719 0.77734375 90.1015625 C-4.98775995 89.35654809 -10.58905448 88.98147295 -16.40625 89.11328125 C-17.52652588 89.1383374 -18.64680176 89.16339355 -19.80102539 89.18920898 C-22.00818359 89.25481896 -24.21475743 89.3460146 -26.41967773 89.46508789 C-33.96424124 89.68482083 -33.96424124 89.68482083 -37.82421875 86.6484375 C-42.48563226 79.34347791 -43.29238765 71.05749274 -43.16015625 62.6015625 C-43.15072998 61.65289307 -43.14130371 60.70422363 -43.1315918 59.72680664 C-42.72485537 40.27962016 -39.16437189 19.74505213 -25.28515625 5.1015625 C-18.04474598 -1.54331619 -9.46571111 -3.26586947 0 0 Z " fill="#432C0D" transform="translate(198.78515625,143.9609375)"/>
<path d="M0 0 C2.31172783 1.47682783 4.28283021 3.03816962 6.29296875 4.90234375 C6.83179688 5.38574219 7.370625 5.86914062 7.92578125 6.3671875 C15.9351997 14.60724365 20.31371449 26.83524597 22.29296875 37.90234375 C22.59847656 39.59230469 22.59847656 39.59230469 22.91015625 41.31640625 C25.42037379 57.37492121 26.53129589 74.24540028 18.29296875 88.90234375 C14.91704955 91.40302464 11.32272198 91.28794628 7.29296875 90.90234375 C5.5414348 90.56783005 3.79159605 90.22438966 2.04296875 89.875 C-6.21473979 88.46401548 -14.48422207 88.85470871 -22.81982422 89.16967773 C-24.86566309 89.24214938 -26.91028658 89.28332447 -28.95703125 89.3203125 C-30.1584375 89.35922607 -31.35984375 89.39813965 -32.59765625 89.43823242 C-35.70703125 88.90234375 -35.70703125 88.90234375 -38.02124023 86.62060547 C-43.15869099 78.33669864 -43.21898794 70.03553128 -43.14453125 60.46484375 C-43.14215454 59.80304108 -43.13977783 59.1412384 -43.1373291 58.4593811 C-43.05830192 44.39318099 -41.67026599 30.41668869 -34.70703125 17.90234375 C-34.27648437 17.07476562 -33.8459375 16.2471875 -33.40234375 15.39453125 C-26.47799237 2.85584091 -14.84641156 -6.01997352 0 0 Z " fill="#432C0D" transform="translate(355.70703125,144.09765625)"/>
<path d="M0 0 C4.46602618 4.03227544 7.29808763 8.40737007 10.25 13.625 C10.72743652 14.46546875 11.20487305 15.3059375 11.69677734 16.171875 C44.1557198 74.06869084 50.75085692 145.15541981 32.91430664 208.91723633 C26.11443837 231.91161787 16.22270717 254.59537626 2 274 C0.84757812 275.5778125 0.84757812 275.5778125 -0.328125 277.1875 C-6.0686069 284.90580459 -12.35093817 292.05360488 -19 299 C-19.52045898 299.55300781 -20.04091797 300.10601562 -20.57714844 300.67578125 C-47.58729499 329.28425686 -83.03423664 348.37888564 -120.20947266 360.38452148 C-122.07019246 360.98002487 -122.07019246 360.98002487 -124 362 C-123.7215625 361.45085937 -123.443125 360.90171875 -123.15625 360.3359375 C-121.89327515 357.78438696 -120.6884749 355.21210694 -119.5 352.625 C-119.0771875 351.70976562 -118.654375 350.79453125 -118.21875 349.8515625 C-116.88935983 347.02548454 -116.88935983 347.02548454 -116.41796875 343.90625 C-114.18735247 339.33440836 -110.41221316 338.58437523 -105.8125 336.875 C-74.83122476 324.44010125 -39.37019783 304.0498332 -20 275.875 C-19.34 274.92625 -18.68 273.9775 -18 273 C-17.34 273 -16.68 273 -16 273 C-15.73058594 272.25105469 -15.46117187 271.50210937 -15.18359375 270.73046875 C-14.04341901 268.10016464 -12.91238717 266.46994787 -11.0625 264.3125 C26.70550619 216.74988639 36.50531799 150.84402694 30.15795898 92.06738281 C26.44862102 61.81596227 17.42889862 30.38039461 1.33300781 4.29882812 C0 2 0 2 0 0 Z " fill="#EB9001" transform="translate(466,125)"/>
<path d="M0 0 C3.51902307 0.68326711 7.01220702 1.44027309 10.5078125 2.234375 C15.64025599 3.3596087 20.81185154 4.18030912 26 5 C26.23732401 13.61984236 25.58653507 21.85313426 24.3125 30.375 C24.13243408 31.58655762 23.95236816 32.79811523 23.7668457 34.04638672 C18.81271702 66.28525746 18.81271702 66.28525746 11.88671875 74.68359375 C-1.18451313 90.73171074 -9.30212978 114.4709843 -10 135 C-10.03867187 135.93634277 -10.03867187 135.93634277 -10.078125 136.89160156 C-10.909274 159.40535001 -6.59215915 184.16583609 8.875 201.5625 C9.47054687 202.18253906 10.06609375 202.80257812 10.6796875 203.44140625 C12 205 12 205 12 207 C-29.78607325 202.26642139 -71.257548 184.17420748 -104 158 C-104.82371094 157.37867188 -105.64742187 156.75734375 -106.49609375 156.1171875 C-125.55732493 141.320798 -141.69443318 122.71809977 -154 102 C-153.01 101.505 -153.01 101.505 -152 101 C-151.47792969 101.72703125 -150.95585937 102.4540625 -150.41796875 103.203125 C-144.74461353 110.95306733 -138.64535035 118.06425325 -132 125 C-131.29037109 125.75047607 -131.29037109 125.75047607 -130.56640625 126.51611328 C-103.81180087 154.71176957 -67.9876888 173.93069167 -31 185 C-29.94039063 185.31710937 -28.88078125 185.63421875 -27.7890625 185.9609375 C-23.64264294 187.14718352 -20.34490439 188 -16 188 C-16.53109375 187.175 -17.0621875 186.35 -17.609375 185.5 C-29.64869837 166.13523768 -30.66175248 144.02842194 -26 122 C-25.87882813 121.26910156 -25.75765625 120.53820312 -25.6328125 119.78515625 C-22.5978887 103.15501255 -13.94682371 86.46405395 -4.640625 72.52734375 C-1.05171462 66.99871276 1.7710288 61.6052914 3.9375 55.375 C4.18838379 54.662229 4.43926758 53.94945801 4.69775391 53.21508789 C7.82827039 43.99811355 9.91606013 34.49801049 12 25 C11.30519531 24.89945312 10.61039063 24.79890625 9.89453125 24.6953125 C0.95997913 22.5490908 -7.74378613 16.66040746 -14 10 C-15.39935013 7.20129973 -15.25265405 5.09501208 -15 2 C-11.47065975 -3.06687461 -5.33420461 -0.80345324 0 0 Z " fill="#DC841C" transform="translate(209,286)"/>
<path d="M0 0 C4.59956946 2.57264055 8.82821451 5.5683425 10.6015625 10.76171875 C12.29518852 20.27591196 12.00782195 31.03486966 6.48828125 39.25 C2.87456142 43.66767098 -0.680813 46.89066722 -6 49 C-10.42338676 49.29743463 -13.86000759 48.62181404 -17.75 46.5 C-21.49762924 42.33596752 -25.05791336 37.77984114 -24.9375 32 C-24.628125 31.01 -24.31875 30.02 -24 29 C-22.04594074 22.09032278 -21.75191785 15.59046654 -21.875 8.4375 C-21.88853516 6.92446289 -21.88853516 6.92446289 -21.90234375 5.38085938 C-21.92566644 2.92031543 -21.95839237 0.46029104 -22 -2 C-14.62053577 -4.45982141 -7.02630589 -3.00481892 0 0 Z " fill="#FEDF49" transform="translate(371,375)"/>
<path d="M0 0 C1.625 1.875 1.625 1.875 2.0625 4.75 C1.56284099 8.31899292 0.73110419 9.96296588 -1.375 12.875 C-16.03420219 23.86940164 -36.22227754 32.11007217 -54.6875 31.9375 C-55.94175781 31.92847656 -57.19601562 31.91945313 -58.48828125 31.91015625 C-59.44089844 31.89855469 -60.39351563 31.88695312 -61.375 31.875 C-61.65308989 10.43117978 -61.65308989 10.43117978 -59.375 5.875 C-57.43920898 5.52783203 -57.43920898 5.52783203 -54.87109375 5.3828125 C-53.91356201 5.31956787 -52.95603027 5.25632324 -51.96948242 5.19116211 C-50.40677612 5.09653687 -50.40677612 5.09653687 -48.8125 5 C-39.80661871 4.36184168 -30.96299514 3.33168134 -22.0625 1.8125 C-21.03761475 1.63799316 -20.01272949 1.46348633 -18.95678711 1.28369141 C-3.15123196 -1.49268882 -3.15123196 -1.49268882 0 0 Z " fill="#452D0D" transform="translate(338.375,286.125)"/>
<path d="M0 0 C0.66 0 1.32 0 2 0 C3.37350348 1.70254058 4.67232545 3.46548617 5.9375 5.25 C10.82234893 11.96154873 16.26075477 18.00995442 22 24 C22.47308594 24.50031738 22.94617188 25.00063477 23.43359375 25.51611328 C50.19898012 53.72313123 86.00930847 72.90279254 123 84 C124.55460937 84.47566406 124.55460937 84.47566406 126.140625 84.9609375 C130.86163635 86.33684723 135.02950462 87.40301314 140 87 C140 87.66 140 88.32 140 89 C140.66 89 141.32 89 142 89 C142 89.66 142 90.32 142 91 C142.57492188 91.27070313 143.14984375 91.54140625 143.7421875 91.8203125 C146.02804236 93.01465189 148.02565294 94.37989305 150.125 95.875 C154.23718261 98.6824868 158.32606504 100.4527905 163.03125 102.04296875 C163.6809375 102.35878906 164.330625 102.67460937 165 103 C165.33 103.99 165.66 104.98 166 106 C124.21392675 101.26642139 82.742452 83.17420748 50 57 C49.17628906 56.37867188 48.35257813 55.75734375 47.50390625 55.1171875 C28.67986982 40.50492177 11.73196212 21.81890006 0 1 C0 0.67 0 0.34 0 0 Z " fill="#EB9002" transform="translate(55,387)"/>
<path d="M0 0 C3.51902307 0.68326711 7.01220702 1.44027309 10.5078125 2.234375 C15.6393607 3.35941241 20.8104646 4.19210529 26 5 C26.26305952 13.2425317 25.60614551 20.91191011 24 29 C10.56270099 27.29367632 -4.82417219 20.47603514 -13.703125 9.98828125 C-15.52858924 7.18960264 -15.41748268 5.27028102 -15 2 C-11.43985403 -3.05424002 -5.35552952 -0.80666526 0 0 Z " fill="#442D0D" transform="translate(209,286)"/>
<path d="M0 0 C2.97 0 5.94 0 9 0 C9.495 2.97 9.495 2.97 10 6 C10.72316406 5.69320313 11.44632812 5.38640625 12.19140625 5.0703125 C24.85448457 0.24460533 39.28997998 0.71086012 52 5 C53.34831267 5.63582637 54.68826299 6.29178518 56 7 C56 9.64 56 12.28 56 15 C55.39671875 14.79503906 54.7934375 14.59007812 54.171875 14.37890625 C53.37265625 14.10949219 52.5734375 13.84007812 51.75 13.5625 C50.56664062 13.16224609 50.56664062 13.16224609 49.359375 12.75390625 C28.39162498 6.05394639 4.44691998 15.95015615 -15.70507812 21.96459961 C-16.35145233 22.15728928 -16.99782654 22.34997894 -17.66378784 22.54850769 C-19.42729428 23.07594676 -21.18952262 23.60765385 -22.95166016 24.13964844 C-25.62638675 24.89455285 -28.26740991 25.50223959 -31 26 C-22.61049573 17.19573373 -11.08614868 13.34700493 0 9 C0 6.03 0 3.06 0 0 Z " fill="#ED9813" transform="translate(277,318)"/>
<path d="M0 0 C5.94 1.485 5.94 1.485 12 3 C11.09966583 12.37960075 9.62568352 21.54243863 7.625 30.75 C7.3297644 32.17820068 7.3297644 32.17820068 7.02856445 33.63525391 C6.17907595 37.40108335 5.40226255 40.38520418 3.27734375 43.6328125 C0.05428656 45.5677525 -2.34055564 45.32068582 -6.0625 45.125 C-11.37636811 44.70918408 -11.37636811 44.70918408 -16 47 C-14.77784174 44.5287637 -13.51179454 42.10776244 -12.1875 39.6875 C-6.04317318 27.28506252 -3.19181161 13.37844442 0 0 Z " fill="#E59F21" transform="translate(221,312)"/>
<path d="M0 0 C-0.21062576 0.70292175 -0.42125153 1.40584351 -0.63825989 2.13006592 C-2.88010377 10.20860283 -3.46825397 17.72096766 -3.51171875 26.078125 C-3.52966995 27.37071228 -3.54762115 28.66329956 -3.56611633 29.99505615 C-3.61307992 33.38803166 -3.64323239 36.7809433 -3.66955566 40.1741333 C-3.69963635 43.65397769 -3.74606996 47.13360273 -3.79101562 50.61328125 C-3.87643575 57.40872798 -3.94404911 64.20424829 -4 71 C-4.33 70.34 -4.66 69.68 -5 69 C-7.8159849 68.53101037 -7.8159849 68.53101037 -11.0625 68.375 C-12.16722656 68.30023438 -13.27195313 68.22546875 -14.41015625 68.1484375 C-15.69212891 68.07496094 -15.69212891 68.07496094 -17 68 C-16.01 67.505 -16.01 67.505 -15 67 C-14.98018066 66.29206299 -14.96036133 65.58412598 -14.93994141 64.85473633 C-13.37059228 11.18039525 -13.37059228 11.18039525 -4.875 2.1875 C-2 0 -2 0 0 0 Z " fill="#EEB525" transform="translate(240,222)"/>
<path d="M0 0 C6.51023492 7.59527407 7.0652473 15.11965469 6.32421875 24.77978516 C5.16061339 32.74802851 0.77646644 39.99779373 -5.3125 45.1875 C-11.96481548 49.67526309 -19.03775796 51.51927665 -27 51 C-27 46.71 -27 42.42 -27 38 C-25.35 38.268125 -23.7 38.53625 -22 38.8125 C-16.77926206 39.28223221 -13.89552974 38.6369149 -9.71484375 35.5078125 C-3.94785329 30.43706462 -1.15393152 25.52802944 0 18 C0.32544572 12.00174429 0.17649942 6.00098022 0 0 Z " fill="#DC6C26" transform="translate(381,384)"/>
<path d="M0 0 C1.27101563 -0.00257813 2.54203125 -0.00515625 3.8515625 -0.0078125 C6.83908027 0.10479903 9.47880888 0.42591938 12.375 1.125 C12.375 4.095 12.375 7.065 12.375 10.125 C11.62476563 9.980625 10.87453125 9.83625 10.1015625 9.6875 C9.07804687 9.501875 8.05453125 9.31625 7 9.125 C6.00226563 8.939375 5.00453125 8.75375 3.9765625 8.5625 C-5.19793111 7.44802789 -13.64007513 8.56467058 -22.6875 10.25 C-24.50024414 10.57798584 -24.50024414 10.57798584 -26.34960938 10.91259766 C-35.92585137 12.69286047 -45.38276264 14.8657559 -54.80493164 17.33251953 C-55.7768042 17.58114746 -56.74867676 17.82977539 -57.75 18.0859375 C-59.02230469 18.42310791 -59.02230469 18.42310791 -60.3203125 18.76708984 C-62.76305019 19.14643873 -64.29910765 18.90007415 -66.625 18.125 C-47.1426036 7.56750027 -22.29312737 -0.04540352 0 0 Z " fill="#ED9714" transform="translate(320.625,358.875)"/>
<path d="M0 0 C1 1 1 1 1.09765625 3.06640625 C1.08605469 3.89011719 1.07445312 4.71382813 1.0625 5.5625 C1.05347656 6.38878906 1.04445313 7.21507812 1.03515625 8.06640625 C1.02355469 8.70449219 1.01195312 9.34257812 1 10 C0.24783203 9.76603516 0.24783203 9.76603516 -0.51953125 9.52734375 C-17.47561484 5.92250708 -34.6276713 11.869393 -50.82421875 16.32421875 C-51.52135986 16.51467773 -52.21850098 16.70513672 -52.93676758 16.90136719 C-54.73019503 17.39744562 -56.517754 17.91460965 -58.3046875 18.43359375 C-61 19 -61 19 -64 18 C-44.49297192 7.76811198 -22.61258983 -3.5766838 0 0 Z " fill="#EC9416" transform="translate(332,404)"/>
<path d="M0 0 C2.5625 1.9375 2.5625 1.9375 4 5 C4.31223835 9.8757219 3.71905809 13.76732899 1.25 18 C-2.06450181 20.94622383 -4.6303183 21.82878979 -9 22.375 C-12.96400965 21.87949879 -14.39911055 21.04675621 -17 18 C-17.99779618 14.94279893 -18.29463133 12.20203103 -18 9 C-13.85853722 1.0128932 -9.1222785 -2.58281379 0 0 Z " fill="#865E23" transform="translate(188,157)"/>
<path d="M0 0 C2.75329021 1.79562405 4.52627461 3.05254922 6 6 C6.39231417 10.70777 6.47336758 13.07079697 4.3125 17.3125 C1.14099438 20.99830383 -1.1531985 22.73067478 -6 23.4375 C-9.72413693 22.8943967 -11.32854076 21.59513183 -14 19 C-15.60725691 15.78548618 -15.47397924 12.48666924 -15 9 C-11.35185027 2.09457373 -7.99212004 -0.98148843 0 0 Z " fill="#875F23" transform="translate(342,156)"/>
<path d="M0 0 C2.875 0.5 2.875 0.5 4.875 2.5 C4.875 4.9375 4.875 4.9375 3.875 7.5 C0.8125 9.3125 0.8125 9.3125 -2.125 10.5 C-2.54390218 13.28938212 -2.54390218 13.28938212 -2.125 16.5 C0.86045246 20.13095569 3.08275528 22.04890116 7.78515625 22.80859375 C14.87209502 23.23303836 19.15436685 20.40387253 24.875 16.5 C25.535 16.17 26.195 15.84 26.875 15.5 C26.875 19.13 26.875 22.76 26.875 26.5 C27.865 26.83 28.855 27.16 29.875 27.5 C9.96800095 31.79547775 9.96800095 31.79547775 2.875 28.5 C-1.44169058 25.57838201 -5.23063314 22.46581604 -7.125 17.5 C-7.77124107 12.52544667 -8.05946022 7.28089097 -5.5 2.8125 C-3.125 0.5 -3.125 0.5 0 0 Z " fill="#EB9317" transform="translate(306.125,443.5)"/>
<path d="M0 0 C0.66 0 1.32 0 2 0 C2.48473678 1.68590842 2.96248926 3.37382545 3.4375 5.0625 C3.83775391 6.47208984 3.83775391 6.47208984 4.24609375 7.91015625 C5.80638169 14.3049115 6.1928283 20.51601594 6.1875 27.0625 C6.1884668 28.29963745 6.1884668 28.29963745 6.18945312 29.56176758 C6.12749471 36.84117704 5.30952042 43.83271411 4 51 C1.36 51 -1.28 51 -4 51 C-3.55937175 45.75884297 -2.95879997 40.6107267 -2 35.4375 C0.01109354 23.77615912 0.20475514 11.80754645 0 0 Z " fill="#EAAB23" transform="translate(283,241)"/>
<path d="M0 0 C5.28 0 10.56 0 16 0 C16.77923828 1.61068359 16.77923828 1.61068359 17.57421875 3.25390625 C18.2783165 4.69026565 18.98276225 6.1264545 19.6875 7.5625 C20.02716797 8.26697266 20.36683594 8.97144531 20.71679688 9.69726562 C23.08428835 14.49862683 25.78622016 18.71683633 29 23 C28.67 23.66 28.34 24.32 28 25 C25.7862786 23.94772421 23.5795382 22.88371927 21.375 21.8125 C20.44880859 21.37454102 20.44880859 21.37454102 19.50390625 20.92773438 C15.11126212 18.77765067 11.57247389 16.35812545 8 13 C8 12.34 8 11.68 8 11 C7.34 11 6.68 11 6 11 C6 10.34 6 9.68 6 9 C5.34 9 4.68 9 4 9 C0 3.70588235 0 3.70588235 0 0 Z " fill="#D66E16" transform="translate(189,465)"/>
<path d="M0 0 C3.3 0.33 6.6 0.66 10 1 C10.26305952 9.2425317 9.60614551 16.91191011 8 25 C6.3733152 24.71788123 4.74867104 24.42397625 3.125 24.125 C2.22007812 23.96257812 1.31515625 23.80015625 0.3828125 23.6328125 C-2 23 -2 23 -4 21 C-3.85986328 18.84521484 -3.85986328 18.84521484 -3.3203125 16.2109375 C-3.13339844 15.26992188 -2.94648438 14.32890625 -2.75390625 13.359375 C-2.54636719 12.37453125 -2.33882812 11.3896875 -2.125 10.375 C-1.92519531 9.38242187 -1.72539062 8.38984375 -1.51953125 7.3671875 C-1.02324166 4.90937238 -0.51292253 2.45439789 0 0 Z " fill="#6C320D" transform="translate(225,290)"/>
<path d="M0 0 C12.30649144 1.01883807 12.30649144 1.01883807 15.6328125 4.91015625 C17.1464524 6.90604886 18.59625151 8.92573248 20 11 C19.67 11.66 19.34 12.32 19 13 C16.76115819 11.9760101 14.53563449 10.93215486 12.3125 9.875 C11.68666016 9.59140625 11.06082031 9.3078125 10.41601562 9.015625 C5.71355469 6.75056528 3.107093 4.1942785 0 0 Z " fill="#D15B07" transform="translate(198,477)"/>
<path d="M0 0 C2.31 0 4.62 0 7 0 C7 3.3 7 6.6 7 10 C4.36 10 1.72 10 -1 10 C-0.67 6.7 -0.34 3.4 0 0 Z " fill="#E2951F" transform="translate(280,282)"/>
<path d="M0 0 C0.66 0.33 1.32 0.66 2 1 C1.67 2.65 1.34 4.3 1 6 C-1.12209776 6.69640673 -3.24778527 7.38188357 -5.375 8.0625 C-6.55835938 8.44535156 -7.74171875 8.82820313 -8.9609375 9.22265625 C-12 10 -12 10 -14 9 C-2.68796992 1.38471178 -2.68796992 1.38471178 0 0 Z " fill="#F6AF0F" transform="translate(260,334)"/>
<path d="M0 0 C3 1 3 1 4.16796875 3.06640625 C4.50441406 3.89011719 4.84085937 4.71382812 5.1875 5.5625 C5.53167969 6.38878906 5.87585938 7.21507812 6.23046875 8.06640625 C6.48441406 8.70449219 6.73835938 9.34257812 7 10 C6.34 10 5.68 10 5 10 C4.67 11.32 4.34 12.64 4 14 C3.5196682 12.41701974 3.04078388 10.83360022 2.5625 9.25 C2.29566406 8.36828125 2.02882813 7.4865625 1.75390625 6.578125 C1.11531506 4.39434165 0.53224167 2.21164502 0 0 Z " fill="#F5BE1C" transform="translate(278,231)"/>
<path d="M0 0 C0.33 1.32 0.66 2.64 1 4 C-0.98 5.32 -2.96 6.64 -5 8 C-3.62845496 5.04590299 -2.01136276 2.55991624 0 0 Z " fill="#EF9A11" transform="translate(332,494)"/>
</svg>
